# xmcd
#
# Track frame offsets:
#	150
#	21598
#	43075
#	75175
#	94225
#
# Disc length: 1732 seconds
# Revision: 0
# Processed by: cddbd v1.5.2PL0 Copyright (c) Steve Scherf et al.
# Submitted via: dBpowerAMP V12.0
#
DISCID=3406c205
DTITLE=Pebbles with Salt ‘N’ Pepa - Backyard
DYEAR=1991
DGENRE=New Jill Swing
TTITLE0=Backyard [7” Outta The Hood With Rap]
TTITLE1=Backyard [7” Outta The Hood No Rap]
TTITLE2=Backyard [Outta The Hood Version]
TTITLE3=Backyard [7” Uptown Version No Rap]
TTITLE4=Backyard [Uptown Club Version]
EXTD=
EXTT0=
EXTT1=
EXTT2=
EXTT3=
EXTT4=
PLAYORDER=
